<?xml version="1.0" standalone="no"?>
<!DOCTYPE svg PUBLIC "-//W3C//DTD SVG 20010904//EN"
 "http://www.w3.org/TR/2001/REC-SVG-20010904/DTD/svg10.dtd">
<svg version="1.0" xmlns="http://www.w3.org/2000/svg"
 width="700.000000pt" height="700.000000pt" viewBox="0 0 700.000000 700.000000"
 preserveAspectRatio="xMidYMid meet">
<metadata>
Created by potrace 1.14, written by Peter Selinger 2001-2017
</metadata>
<g transform="translate(0.000000,700.000000) scale(0.100000,-0.100000)"
fill="#000000" stroke="none">
<path d="M1698 5945 c-2 -1 -43 -5 -93 -9 -49 -3 -99 -8 -110 -10 -11 -2 -42
-7 -70 -10 -192 -25 -470 -117 -680 -224 -95 -48 -115 -60 -235 -137 -129 -84
-370 -270 -370 -287 0 -5 13 -23 29 -41 16 -17 97 -112 181 -210 157 -184 157
-183 190 -146 18 19 161 127 244 184 184 125 383 216 586 269 88 22 119 29
210 42 19 3 100 6 180 8 583 11 914 -234 1069 -789 18 -67 54 -246 66 -330 3
-23 7 -50 9 -60 7 -38 19 -177 31 -345 15 -207 8 -1293 -10 -1500 -2 -25 -7
-81 -10 -125 -4 -44 -9 -83 -11 -86 -1 -3 -6 -28 -10 -55 -15 -116 -60 -216
-115 -256 -53 -40 -155 -24 -208 33 -41 43 -73 130 -86 229 -3 25 -7 61 -10
80 -2 19 -4 472 -5 1007 l-1 972 -92 45 c-182 88 -383 153 -562 181 -27 5 -57
10 -65 11 -113 24 -421 23 -541 -1 -13 -3 -35 -7 -49 -10 -65 -12 -196 -57
-262 -90 -281 -141 -472 -398 -579 -780 -15 -55 -31 -116 -34 -135 -3 -19 -8
-42 -10 -50 -2 -8 -7 -39 -10 -69 -4 -30 -9 -63 -11 -74 -22 -119 -23 -568 0
-692 2 -11 7 -42 11 -70 51 -363 210 -655 434 -800 228 -148 630 -166 880 -40
151 76 304 228 390 390 49 90 54 92 65 25 41 -254 119 -441 244 -581 15 -17
54 -50 87 -73 101 -72 201 -104 334 -109 334 -13 568 132 714 443 52 109 63
137 86 215 60 206 102 467 126 785 4 47 8 103 10 125 10 103 19 424 19 650 0
287 -8 479 -29 665 -7 66 -9 80 -21 160 -3 25 -8 54 -9 65 -23 166 -92 431
-160 610 -200 532 -641 893 -1185 970 -25 3 -56 8 -70 10 -84 13 -144 17 -302
19 -98 2 -179 2 -180 1z m-79 -2148 l66 -22 0 -665 c0 -617 -1 -670 -19 -740
-34 -137 -95 -233 -170 -269 -62 -31 -160 -38 -224 -17 -148 50 -205 251 -206
736 0 149 11 436 18 480 3 14 7 47 11 74 9 71 31 174 49 223 69 194 257 273
475 200z"/>
<path d="M5577 4994 c-1 -1 -38 -4 -82 -8 -44 -3 -91 -8 -105 -11 -14 -3 -41
-8 -60 -11 -508 -89 -933 -436 -1128 -922 -59 -146 -103 -318 -117 -453 -3
-30 -8 -69 -11 -88 -6 -40 -6 -344 0 -381 3 -14 7 -47 11 -75 10 -79 16 -117
27 -165 5 -25 12 -55 14 -67 11 -55 69 -217 110 -302 140 -296 366 -525 656
-665 119 -57 191 -84 298 -111 284 -72 649 -76 920 -10 14 3 36 8 50 11 70 14
261 90 370 147 138 73 300 185 300 208 0 9 -368 537 -395 567 -9 10 -34 -1
-120 -53 -248 -149 -355 -186 -560 -191 -159 -4 -251 13 -361 67 -237 117
-357 397 -357 834 0 94 11 275 18 310 3 11 7 31 9 45 23 143 97 316 172 399
78 87 202 162 319 194 44 12 124 19 200 18 72 -1 101 -3 186 -17 111 -17 319
-101 439 -178 30 -19 58 -32 62 -28 32 34 382 531 382 545 2 36 -254 196 -429
269 -120 50 -320 98 -475 114 -57 6 -337 13 -343 8z"/>
</g>
</svg>
